<svg width="15" height="16" viewBox="0 0 15 16" fill="none" xmlns="http://www.w3.org/2000/svg">
<g id="Account" clip-path="url(#clip0_355_2074)">
<path id="Vector" d="M5.70133 8.39622C3.52491 8.39622 1.75426 6.62556 1.75426 4.44915C1.95269 -0.779999 9.45079 -0.778566 9.64841 4.4492C9.64841 6.62556 7.87775 8.39622 5.70133 8.39622ZM5.70133 1.67157C4.16978 1.67157 2.92376 2.91759 2.92376 4.44915C3.0634 8.1289 8.33982 8.12791 8.4789 4.44912C8.4789 2.91759 7.23289 1.67157 5.70133 1.67157ZM11.9289 15.4717H7.54289C6.71447 15.4717 5.9395 15.1499 5.36074 14.5656C3.44799 12.6252 4.82818 9.33109 7.55424 9.33183H11.9533C12.7668 9.33183 13.5316 9.64861 14.1068 10.2239C14.6813 10.7984 14.998 11.5621 14.9987 12.3745C15.0486 14.029 13.5836 15.507 11.9289 15.4717ZM7.5531 10.5013C5.87445 10.4917 5.00606 12.5625 6.19168 13.7426C6.54911 14.1035 7.02898 14.3022 7.54289 14.3022H11.9289C12.4375 14.3022 12.9163 14.1015 13.2772 13.7371C13.6381 13.3728 13.8342 12.8919 13.8293 12.383C13.8293 12.3811 13.8293 12.3792 13.8293 12.3773C13.8501 11.369 12.9617 10.4805 11.9534 10.5013H7.55397C7.55371 10.5013 7.55336 10.5013 7.5531 10.5013ZM0.584752 15.4717C0.261793 15.4717 0 15.2099 0 14.887V14.273C0 12.15 1.25055 10.2298 3.18596 9.38109C3.90696 9.09626 4.35368 10.1147 3.65564 10.4521C2.14537 11.1144 1.1695 12.6142 1.1695 14.273V14.8869C1.1695 15.2099 0.90771 15.4717 0.584752 15.4717ZM12.7768 12.4018C12.7409 11.433 11.3506 11.4337 11.315 12.4018C11.3509 13.3706 12.7412 13.3698 12.7768 12.4018ZM10.4378 12.4018C10.4019 11.433 9.01155 11.4337 8.97594 12.4018C9.01188 13.3706 10.4022 13.3698 10.4378 12.4018ZM8.09881 12.4018C8.06288 11.433 6.67255 11.4337 6.63694 12.4018C6.67287 13.3706 8.0632 13.3698 8.09881 12.4018Z" fill="#353535"/>
</g>
<defs>
<clipPath id="clip0_355_2074">
<rect width="15" height="15" fill="white" transform="translate(0 0.5)"/>
</clipPath>
</defs>
</svg>
