<svg width="15" height="16" viewBox="0 0 15 16" fill="none" xmlns="http://www.w3.org/2000/svg">
<g id="Audit" clip-path="url(#clip0_1130_3275)">
<path id="Vector" d="M12.8581 10.8418C13.1816 10.8418 13.4441 10.5795 13.4441 10.2559V4.30859C13.4441 3.01621 12.3926 1.96484 11.1003 1.96484H9.25461V1.08594C9.25461 0.762299 8.9922 0.5 8.66867 0.5H6.32492C6.00128 0.5 5.73898 0.762299 5.73898 1.08594V1.96484H3.89648C2.6041 1.96484 1.55273 3.01621 1.55273 4.30859V13.1562C1.55273 14.4486 2.6041 15.5 3.89648 15.5H11.1003C12.3926 15.5 13.4441 14.4486 13.4441 13.1562C13.4441 12.8326 13.1816 12.5703 12.8581 12.5703C12.5345 12.5703 12.2722 12.8326 12.2722 13.1562C12.2722 13.8024 11.7464 14.3281 11.1003 14.3281H3.89648C3.25035 14.3281 2.72461 13.8024 2.72461 13.1562V4.30859C2.72461 3.66246 3.25035 3.13672 3.89648 3.13672H5.73898V3.42969C5.73898 4.399 6.52748 5.1875 7.4968 5.1875C8.466 5.1875 9.25461 4.399 9.25461 3.42969V3.13672H11.1003C11.7464 3.13672 12.2722 3.66246 12.2722 4.30859V10.2559C12.2722 10.5795 12.5345 10.8418 12.8581 10.8418ZM8.08273 3.42969C8.08273 3.75275 7.81986 4.01562 7.4968 4.01562C7.17361 4.01562 6.91086 3.75275 6.91086 3.42969V1.67188H8.08273V3.42969ZM10.6433 7.1687C10.9092 7.35318 10.9751 7.71836 10.7906 7.98421L8.18367 11.7402C8.17589 11.7514 8.16765 11.7624 8.15907 11.7731C7.89585 12.1008 7.50435 12.3047 7.08504 12.3326C7.05185 12.3348 7.01855 12.3359 6.98547 12.3359C6.60061 12.3359 6.22639 12.1875 5.94612 11.9206C5.94337 11.918 5.94063 11.9155 5.938 11.9128L4.38938 10.3812C4.15936 10.1535 4.1573 9.78253 4.3848 9.55251C4.61243 9.32236 4.98344 9.32042 5.21347 9.54793L6.75716 11.0747C6.84895 11.1601 6.95274 11.1669 7.00699 11.1633C7.05952 11.1598 7.15702 11.1404 7.23553 11.051L9.82784 7.31599C10.0124 7.05014 10.3775 6.98411 10.6433 7.1687Z" fill="white"/>
</g>
<defs>
<clipPath id="clip0_1130_3275">
<rect width="15" height="15" fill="white" transform="translate(0 0.5)"/>
</clipPath>
</defs>
</svg>
