<svg width="15" height="16" viewBox="0 0 15 16" fill="none" xmlns="http://www.w3.org/2000/svg">
<g id="Avatar" clip-path="url(#clip0_353_1841)">
<g id="Group">
<g id="Group_2">
<path id="Vector" d="M9.76178 7.45522C10.7216 6.75523 11.3466 5.62238 11.3466 4.34615C11.3466 2.22538 9.62121 0.5 7.50044 0.5C5.37967 0.5 3.65429 2.22538 3.65429 4.34615C3.65429 5.62238 4.27928 6.75523 5.2391 7.45522C2.85316 8.36826 1.1543 10.6816 1.1543 13.3846C1.1543 14.551 2.10325 15.5 3.26968 15.5H11.7312C12.8976 15.5 13.8466 14.551 13.8466 13.3846C13.8466 10.6816 12.1477 8.36826 9.76178 7.45522ZM4.80814 4.34615C4.80814 2.86162 6.01591 1.65386 7.50044 1.65386C8.98497 1.65386 10.1927 2.86162 10.1927 4.34615C10.1927 5.83068 8.98497 7.03848 7.50044 7.03848C6.01591 7.03848 4.80814 5.83068 4.80814 4.34615ZM11.7312 14.3461H3.26968C2.73949 14.3461 2.30815 13.9148 2.30815 13.3846C2.30815 10.5215 4.63737 8.19228 7.50047 8.19228C10.3636 8.19228 12.6928 10.5215 12.6928 13.3846C12.6928 13.9148 12.2614 14.3461 11.7312 14.3461Z" fill="#353535"/>
</g>
</g>
</g>
<defs>
<clipPath id="clip0_353_1841">
<rect width="15" height="15" fill="white" transform="translate(0 0.5)"/>
</clipPath>
</defs>
</svg>
