<svg width="15" height="16" viewBox="0 0 15 16" fill="none" xmlns="http://www.w3.org/2000/svg">
<g id="Encrpyted file" clip-path="url(#clip0_1130_3270)">
<path id="Vector" d="M9.32388 7.58021V6.8257C9.32388 5.81416 8.50082 4.99121 7.48928 4.99121H7.48333C6.47179 4.99121 5.64884 5.81416 5.64884 6.8257V7.58021C5.22266 7.6721 4.90234 8.0517 4.90234 8.50501V10.3346C4.90234 11.3255 5.70858 12.1319 6.69964 12.1319H8.27309C9.26414 12.1319 10.0704 11.3255 10.0704 10.3346V8.50501C10.0704 8.0517 9.74995 7.6721 9.32388 7.58021ZM6.52775 6.8257C6.52775 6.29881 6.95644 5.87012 7.48333 5.87012H7.48928C8.01628 5.87012 8.44498 6.29881 8.44498 6.8257V7.55881H6.52775V6.8257ZM9.19147 10.3346C9.19147 10.841 8.77949 11.253 8.27309 11.253H7.92576V9.84534C7.92576 9.60261 7.72903 9.40588 7.48631 9.40588C7.24358 9.40588 7.04685 9.60261 7.04685 9.84534V11.253H6.69952C6.19312 11.253 5.78114 10.841 5.78114 10.3346V8.50501C5.78114 8.46793 5.81135 8.43771 5.84843 8.43771H9.12418C9.16126 8.43771 9.19147 8.46793 9.19147 8.50501V10.3346Z" fill="white"/>
<path id="Vector_2" d="M12.944 2.82464L10.733 0.647057C10.6367 0.552185 10.5091 0.5 10.3737 0.5H3.37383C2.54734 0.5 1.875 1.15895 1.875 1.96908V14.0309C1.875 14.8409 2.54734 15.5 3.37383 15.5H11.5969C12.4234 15.5 13.0957 14.8409 13.0957 14.0309V3.18661C13.0957 3.05157 13.0404 2.91962 12.944 2.82464ZM10.843 1.98911L11.5838 2.71867H10.843V1.98911ZM11.5969 14.6211H3.37383C3.032 14.6211 2.75391 14.3564 2.75391 14.0309V1.96908C2.75391 1.64361 3.032 1.37891 3.37383 1.37891H9.96414V3.09541C9.96414 3.37224 10.1903 3.59757 10.4681 3.59757H12.2168V14.0309C12.2168 14.3564 11.9387 14.6211 11.5969 14.6211Z" fill="white"/>
</g>
<defs>
<clipPath id="clip0_1130_3270">
<rect width="15" height="15" fill="white" transform="translate(0 0.5)"/>
</clipPath>
</defs>
</svg>
