<svg width="15" height="16" viewBox="0 0 15 16" fill="none" xmlns="http://www.w3.org/2000/svg">
<g id="Group">
<g id="Group_2">
<g id="Group_3">
<path id="Vector" d="M12.8027 8.35611H11.3344C11.1346 8.35611 10.9411 8.38342 10.757 8.43363C10.3938 7.71961 9.65221 7.229 8.79771 7.229H6.20229C5.34779 7.229 4.60623 7.71961 4.24301 8.43363C4.05888 8.38342 3.8654 8.35611 3.66557 8.35611H2.19727C0.985693 8.35611 0 9.34181 0 10.5534V12.9006C0 13.6275 0.591416 14.2189 1.31836 14.2189H13.6816C14.4086 14.2189 15 13.6275 15 12.9006V10.5534C15 9.34181 14.0143 8.35611 12.8027 8.35611ZM4.00503 9.42633V13.3401H1.31836C1.07604 13.3401 0.878906 13.1429 0.878906 12.9006V10.5534C0.878906 9.82647 1.47032 9.23505 2.19727 9.23505H3.66557C3.78486 9.23505 3.90038 9.25125 4.01036 9.2811C4.0072 9.32918 4.00503 9.37752 4.00503 9.42633ZM10.1161 13.3401H4.88394V9.4263C4.88394 8.69936 5.47535 8.10794 6.20229 8.10794H8.79771C9.52465 8.10794 10.1161 8.69936 10.1161 9.4263V13.3401ZM14.1211 12.9006C14.1211 13.1429 13.924 13.3401 13.6816 13.3401H10.995V9.4263C10.995 9.37746 10.9928 9.32912 10.9896 9.28107C11.0996 9.25125 11.2151 9.23502 11.3344 9.23502H12.8027C13.5297 9.23502 14.1211 9.82644 14.1211 10.5534V12.9006Z" fill="white"/>
</g>
</g>
<g id="Group_4">
<g id="Group_5">
<path id="Vector_2" d="M2.93104 4.20605C1.8544 4.20605 0.978516 5.08194 0.978516 6.15857C0.978486 7.2352 1.8544 8.11109 2.93104 8.11109C4.00764 8.11109 4.88355 7.2352 4.88355 6.15857C4.88355 5.08194 4.00767 4.20605 2.93104 4.20605ZM2.93101 7.23219C2.339 7.23219 1.85739 6.75058 1.85739 6.15857C1.85739 5.56657 2.339 5.08496 2.93101 5.08496C3.52301 5.08496 4.00462 5.56657 4.00462 6.15857C4.00462 6.75058 3.52301 7.23219 2.93101 7.23219Z" fill="white"/>
</g>
</g>
<g id="Group_6">
<g id="Group_7">
<path id="Vector_3" d="M7.49916 1.78101C6.0608 1.78101 4.89062 2.95118 4.89062 4.38954C4.89062 5.8279 6.0608 6.99808 7.49916 6.99808C8.93752 6.99808 10.1077 5.8279 10.1077 4.38954C10.1077 2.95121 8.93752 1.78101 7.49916 1.78101ZM7.49916 6.11917C6.54543 6.11917 5.76953 5.34327 5.76953 4.38954C5.76953 3.43584 6.54543 2.65991 7.49916 2.65991C8.45289 2.65991 9.22879 3.43581 9.22879 4.38954C9.22879 5.34327 8.45289 6.11917 7.49916 6.11917Z" fill="white"/>
</g>
</g>
<g id="Group_8">
<g id="Group_9">
<path id="Vector_4" d="M12.0678 4.20605C10.9912 4.20605 10.1152 5.08194 10.1152 6.15857C10.1153 7.2352 10.9912 8.11109 12.0678 8.11109C13.1444 8.11109 14.0203 7.2352 14.0203 6.15857C14.0203 5.08194 13.1444 4.20605 12.0678 4.20605ZM12.0678 7.23219C11.4758 7.23219 10.9941 6.75058 10.9941 6.15857C10.9942 5.56657 11.4758 5.08496 12.0678 5.08496C12.6598 5.08496 13.1414 5.56657 13.1414 6.15857C13.1414 6.75058 12.6598 7.23219 12.0678 7.23219Z" fill="white"/>
</g>
</g>
</g>
</svg>
