<svg width="15" height="16" viewBox="0 0 15 16" fill="none" xmlns="http://www.w3.org/2000/svg">
<g id="Help desk" clip-path="url(#clip0_348_1634)">
<path id="Vector" d="M13.9139 14.1181C13.7453 13.3456 12.8655 10.3415 9.48661 9.26862C9.84553 9.04284 10.1637 8.758 10.427 8.42743H11.7413C12.5031 8.42743 13.1229 7.80765 13.1229 7.04587V5.16249C13.1229 4.84324 13.0137 4.54919 12.8312 4.31499C11.0694 -0.767243 3.94448 -0.7761 2.17608 4.31505C1.99361 4.54925 1.88449 4.84327 1.88449 5.16249V7.04587C1.88449 7.80768 2.50427 8.42743 3.26605 8.42743H4.58036C4.84362 8.758 5.16181 9.04287 5.52074 9.26862C2.14312 10.3408 1.2572 13.3442 1.08688 14.1153C0.938722 14.7673 1.42976 15.5 2.20808 15.5C4.49863 15.5 10.5832 15.5 12.7993 15.4929C13.5582 15.4929 14.0581 14.7909 13.9139 14.1181ZM12.2431 5.16249V7.04587C12.2431 7.32257 12.018 7.54764 11.7413 7.54764H10.9502C11.3349 6.6461 11.3349 5.56223 10.9502 4.66069H11.7413C12.018 4.66066 12.2431 4.88576 12.2431 5.16249ZM4.05715 7.54764H3.26605C2.98936 7.54764 2.76428 7.32254 2.76428 7.04587V5.16249C2.76428 4.88576 2.98939 4.66069 3.26605 4.66069H4.05715C3.67248 5.56223 3.67248 6.64607 4.05715 7.54764ZM3.38356 3.78087C5.14911 0.567363 9.85922 0.569563 11.6239 3.78087H10.427C8.98938 1.91044 6.01729 1.91115 4.58036 3.78087H3.38356ZM4.64764 6.10415C4.64764 4.52933 5.92884 3.24813 7.50366 3.24813C9.44546 3.2103 10.8802 5.27211 10.1891 7.07681H8.44538C7.86261 7.09834 7.86255 7.93507 8.44538 7.9566H9.67561C7.98549 9.95694 4.64772 8.7543 4.64764 6.10415ZM13.0005 14.5176C12.9511 14.5783 12.8777 14.6131 12.7979 14.6131C10.5818 14.6202 4.49828 14.6202 2.20808 14.6202C2.04579 14.6242 1.91047 14.4611 1.94669 14.3016C3.304 8.45192 11.6294 8.3225 13.0537 14.3027C13.0689 14.379 13.0496 14.4572 13.0005 14.5176Z" fill="white"/>
</g>
<defs>
<clipPath id="clip0_348_1634">
<rect width="15" height="15" fill="white" transform="translate(0 0.5)"/>
</clipPath>
</defs>
</svg>
