<svg width="16" height="16" viewBox="0 0 16 16" fill="none" xmlns="http://www.w3.org/2000/svg">
<g id="Login" clip-path="url(#clip0_605_1901)">
<g id="Group">
<g id="Group_2">
<g id="Group_3">
<path id="Vector" d="M4.35253 14.0759H2.27811C2.02797 14.0759 1.87706 13.9363 1.80939 13.8531C1.69255 13.7094 1.64729 13.5223 1.68529 13.3398C2.29375 10.4172 4.87305 8.28273 7.85067 8.21348C7.90027 8.21532 7.94998 8.21655 7.99999 8.21655C8.05044 8.21655 8.1006 8.21529 8.15064 8.21342C8.87875 8.23003 9.58996 8.36693 10.2669 8.62114C10.5699 8.73496 10.9077 8.58153 11.0214 8.27857C11.1352 7.97564 10.9818 7.63782 10.6789 7.52406C10.5819 7.48762 10.4842 7.45352 10.386 7.42117C11.3558 6.69373 11.9844 5.53498 11.9844 4.23218C11.9844 2.03521 10.197 0.247803 7.99999 0.247803C5.80299 0.247803 4.01562 2.03521 4.01562 4.23218C4.01562 5.53615 4.64527 6.69581 5.61649 7.42313C4.72671 7.71604 3.89175 8.17155 3.16103 8.77261C1.82122 9.87467 0.88967 11.4118 0.53802 13.101C0.427805 13.6303 0.559817 14.1739 0.900217 14.5925C1.23889 15.0089 1.74113 15.2478 2.27811 15.2478H4.35253C4.67615 15.2478 4.93847 14.9855 4.93847 14.6619C4.93847 14.3383 4.67615 14.0759 4.35253 14.0759ZM5.18749 4.23218C5.18749 2.68135 6.44916 1.41968 7.99999 1.41968C9.55082 1.41968 10.8125 2.68135 10.8125 4.23218C10.8125 5.73707 9.62439 6.96962 8.13693 7.04131C8.09131 7.04049 8.0457 7.03978 7.99999 7.03978C7.95417 7.03978 7.90838 7.04046 7.86262 7.04128C6.37536 6.96938 5.18749 5.73692 5.18749 4.23218Z" fill="white"/>
<path id="Vector_2" d="M15.0514 10.3437C14.8006 9.78268 14.2357 9.41916 13.6107 9.41772H11.7834C11.7821 9.41772 11.7809 9.41772 11.7795 9.41772C11.1204 9.41772 10.5453 9.8062 10.3139 10.4082C10.2831 10.4883 10.2454 10.5892 10.2061 10.7068H6.36982C6.21141 10.7068 6.05977 10.7709 5.94941 10.8846L4.94288 11.9213C4.7212 12.1497 4.72231 12.5132 4.94538 12.7402L5.97077 13.7835C6.08092 13.8956 6.23151 13.9587 6.38866 13.9587H8.29295C8.61657 13.9587 8.87889 13.6964 8.87889 13.3728C8.87889 13.0492 8.61657 12.7868 8.29295 12.7868H6.63434L6.18235 12.3269L6.61761 11.8787H10.6457C10.9156 11.8787 11.1506 11.6942 11.2148 11.4321C11.2622 11.2385 11.3217 11.0524 11.4077 10.8287C11.4644 10.6811 11.6068 10.5896 11.781 10.5896C11.7813 10.5896 11.7817 10.5896 11.7821 10.5896H13.6094C13.7751 10.59 13.9177 10.679 13.9816 10.822C14.1389 11.1739 14.3267 11.7187 14.3281 12.3157C14.3295 12.9171 14.1419 13.4744 13.9842 13.836C13.9206 13.9819 13.7768 14.0759 13.6162 14.0759C13.6159 14.0759 13.6156 14.0759 13.6153 14.0759H11.7659C11.6038 14.0755 11.4519 13.9713 11.3881 13.8164C11.3196 13.6503 11.2602 13.4606 11.2065 13.2364C11.1312 12.9217 10.8149 12.7277 10.5003 12.8029C10.1856 12.8783 9.99153 13.1945 10.0668 13.5092C10.1348 13.7933 10.2127 14.04 10.3048 14.2632C10.5508 14.8598 11.1233 15.2463 11.7645 15.2478H13.6139C13.6152 15.2478 13.6163 15.2478 13.6176 15.2478C14.2431 15.2477 14.8084 14.8778 15.0584 14.3044C15.2609 13.84 15.5019 13.1175 15.5 12.3129C15.4981 11.5105 15.255 10.7992 15.0514 10.3437Z" fill="white"/>
<path id="Vector_3" d="M13.127 12.9041C13.4506 12.9041 13.7129 12.6417 13.7129 12.3181C13.7129 11.9945 13.4506 11.7322 13.127 11.7322C12.8033 11.7322 12.541 11.9945 12.541 12.3181C12.541 12.6417 12.8033 12.9041 13.127 12.9041Z" fill="white"/>
</g>
</g>
</g>
</g>
<defs>
<clipPath id="clip0_605_1901">
<rect width="15" height="15" fill="white" transform="translate(0.5 0.247803)"/>
</clipPath>
</defs>
</svg>
