<svg width="15" height="16" viewBox="0 0 15 16" fill="none" xmlns="http://www.w3.org/2000/svg">
<g id="Mail" clip-path="url(#clip0_355_2064)">
<g id="Group">
<g id="Group_2">
<path id="Vector" d="M7.5 2.25781C5.8038 2.25781 4.42383 3.63778 4.42383 5.33398C4.42383 6.387 4.95486 7.35591 5.84435 7.92579C6.75264 8.50771 7.86759 8.56956 8.9037 8.09287C9.12416 7.99145 9.22069 7.73047 9.11924 7.50998C9.01781 7.28952 8.75687 7.19299 8.53635 7.29441C7.77873 7.64299 6.97031 7.60335 6.31849 7.18575C5.68245 6.77826 5.30273 6.08601 5.30273 5.33398C5.30273 4.12241 6.28843 3.13672 7.5 3.13672C8.71157 3.13672 9.69727 4.12241 9.69727 5.33398C9.69727 5.5763 9.50013 5.77344 9.25781 5.77344C9.03639 5.77344 8.82955 5.60551 8.81842 5.34066C8.81839 5.33844 8.81836 5.33621 8.81836 5.33398C8.81836 4.60704 8.22694 4.01562 7.5 4.01562C6.77306 4.01562 6.18164 4.60704 6.18164 5.33398C6.18164 6.06093 6.77306 6.65234 7.5 6.65234C7.83738 6.65234 8.14544 6.52481 8.37888 6.31561C8.61229 6.52484 8.9204 6.65234 9.25781 6.65234C9.98476 6.65234 10.5762 6.06093 10.5762 5.33398C10.5762 3.63778 9.1962 2.25781 7.5 2.25781ZM7.93327 5.40447C7.89935 5.61333 7.71826 5.77344 7.5 5.77344C7.25769 5.77344 7.06055 5.5763 7.06055 5.33398C7.06055 5.09167 7.25769 4.89453 7.5 4.89453C7.72532 4.89453 7.91133 5.06504 7.93638 5.28374C7.92981 5.32367 7.92873 5.36431 7.93327 5.40447Z" fill="#353535"/>
</g>
</g>
<g id="Group_3">
<g id="Group_4">
<path id="Vector_2" d="M14.0918 6.27078C14.0917 6.15714 14.0459 6.04355 13.9631 5.96073L12.334 4.33165V0.939453C12.334 0.696758 12.1372 0.5 11.8945 0.5H3.10547C2.86277 0.5 2.66602 0.696758 2.66602 0.939453V4.33165L1.03693 5.96073C1.03541 5.96226 1.03412 5.96395 1.03263 5.96551C0.950273 6.05035 0.908408 6.16206 0.908232 6.27078C0.908232 6.27107 0.908203 6.27134 0.908203 6.27163V14.1816C0.908203 14.9095 1.50047 15.5 2.22656 15.5H12.7734C13.5011 15.5 14.0918 14.908 14.0918 14.1816V6.27163C14.0918 6.27134 14.0918 6.27107 14.0918 6.27078ZM12.334 5.5746L13.0309 6.27148L12.334 6.96837V5.5746ZM3.54492 4.51382C3.54492 4.51373 3.54492 4.51361 3.54492 4.51353V1.37891H11.4551V4.51353C11.4551 4.51361 11.4551 4.51373 11.4551 4.51382V7.84728L9.07579 10.2266H5.92421L3.54492 7.84728V4.51382ZM2.66602 5.5746V6.96837L1.96913 6.27148L2.66602 5.5746ZM1.78711 13.9996V7.33241L5.12071 10.666L1.78711 13.9996ZM2.40861 14.6211L5.92421 11.1055H9.07579L12.5914 14.6211H2.40861ZM13.2129 13.9996L9.87929 10.666L13.2129 7.33241V13.9996Z" fill="#353535"/>
</g>
</g>
</g>
<defs>
<clipPath id="clip0_355_2064">
<rect width="15" height="15" fill="white" transform="translate(0 0.5)"/>
</clipPath>
</defs>
</svg>
