<svg width="15" height="16" viewBox="0 0 15 16" fill="none" xmlns="http://www.w3.org/2000/svg">
<g id="Shop" clip-path="url(#clip0_348_1628)">
<g id="Group">
<path id="Vector" d="M14.9372 5.42038L13.5878 3.17123V1.88085C13.5878 1.11022 12.9621 0.5 12.2069 0.5H2.79284C2.03537 0.5 1.41199 1.11228 1.41199 1.88085V3.17126L0.0625154 5.42038C0.0177498 5.495 -0.00299243 5.5797 0.000347412 5.66369V6.82373C0.000347412 7.47392 0.386363 8.03562 0.941275 8.29171V15.0605C0.941275 15.3032 1.13803 15.5 1.38073 15.5H13.619C13.8617 15.5 14.0585 15.3032 14.0585 15.0605V8.29191C14.6136 8.03595 14.9999 7.47406 14.9999 6.82373V5.64649C14.9999 5.56684 14.9782 5.4887 14.9372 5.42038ZM13.7843 5.20704H12.5044L11.9146 3.73241H12.8995L13.7843 5.20704ZM2.29089 1.88088C2.29089 1.60109 2.51821 1.37891 2.79284 1.37891H12.2069C12.4802 1.37891 12.7088 1.59989 12.7088 1.88088V2.85351H2.29086L2.29089 1.88088ZM10.2928 6.08595H11.7675V6.82373C11.7271 7.80099 10.3331 7.80125 10.2928 6.82373V6.08595ZM10.2136 5.20704L9.91875 3.73241H10.968L11.5578 5.20704H10.2136ZM7.93957 6.08595H9.41393V6.82373C9.37353 7.80116 7.97979 7.80107 7.93957 6.82373V6.08595ZM7.93933 5.20704V3.73241H9.02244L9.31734 5.20704H7.93933ZM7.06066 6.08595V6.82373C7.02032 7.80104 5.62626 7.80122 5.58606 6.82373V6.08595H7.06066ZM5.68239 5.20704L5.97732 3.73241H7.06043V5.20704H5.68239ZM3.44194 5.20704L4.03177 3.73241H5.08101L4.78608 5.20704H3.44194ZM4.70712 6.08595V6.82373C4.66672 7.80113 3.27298 7.8011 3.23276 6.82373V6.08595H4.70712ZM2.10026 3.73241H3.08519L2.49536 5.20704H1.21549L2.10026 3.73241ZM0.879254 6.82373V6.08595H2.35385V6.82373C2.31354 7.80099 0.919478 7.80125 0.879254 6.82373ZM11.2968 14.6211H8.88076V10.3223H11.2968V14.6211ZM13.1796 14.6211H12.1756V9.88282C12.1756 9.64013 11.9789 9.44337 11.7362 9.44337H8.4413C8.19861 9.44337 8.00185 9.64013 8.00185 9.88282V14.6211H1.82021V8.42609C2.20171 8.37772 2.54217 8.19632 2.79322 7.92957C3.40391 8.60469 4.536 8.60416 5.14652 7.9296C5.75727 8.60475 6.88945 8.6041 7.50002 7.92957C8.11072 8.60469 9.24278 8.60416 9.85333 7.9296C10.4641 8.60475 11.5963 8.60407 12.2068 7.92957C12.4578 8.19641 12.7982 8.37787 13.1796 8.42615V14.6211H13.1796ZM14.121 6.82373C14.0806 7.80102 12.6866 7.80125 12.6464 6.82373V6.08595H14.121V6.82373Z" fill="white"/>
<path id="Vector_2" d="M6.5586 9.44336H3.26367C3.02098 9.44336 2.82422 9.64012 2.82422 9.88281V13.1777C2.82422 13.4204 3.02098 13.6172 3.26367 13.6172H6.5586C6.8013 13.6172 6.99806 13.4204 6.99806 13.1777V9.88281C6.99806 9.64009 6.8013 9.44336 6.5586 9.44336ZM6.11915 12.7383H3.70312V10.3222H6.11915V12.7383Z" fill="white"/>
</g>
</g>
<defs>
<clipPath id="clip0_348_1628">
<rect width="15" height="15" fill="white" transform="translate(0 0.5)"/>
</clipPath>
</defs>
</svg>
