<svg width="16" height="16" viewBox="0 0 16 16" fill="none" xmlns="http://www.w3.org/2000/svg">
<g id="Add user" clip-path="url(#clip0_605_1910)">
<path id="Vector" d="M12.3129 4.58995C12.3129 2.20378 10.3715 0.262451 7.98538 0.262451C5.59924 0.262451 3.65788 2.20378 3.65788 4.58995C3.65788 6.06795 4.40287 7.37506 5.53689 8.15608C4.47813 8.52145 3.5077 9.12496 2.69243 9.94024C1.27862 11.3541 0.5 13.2338 0.5 15.2332H1.66959C1.66959 11.7507 4.50283 8.91742 7.98538 8.91742C10.3716 8.91742 12.3129 6.97609 12.3129 4.58995ZM7.98538 7.74783C6.24412 7.74783 4.8275 6.33121 4.8275 4.58995C4.8275 2.84869 6.24412 1.43204 7.98538 1.43204C9.72664 1.43204 11.1433 2.84866 11.1433 4.58995C11.1433 6.33124 9.72664 7.74783 7.98538 7.74783ZM15.5 12.7771H13.0439V15.2332H11.8743V12.7771H9.41814V11.6075H11.8743V9.15136H13.0439V11.6075H15.5V12.7771Z" fill="black"/>
</g>
<defs>
<clipPath id="clip0_605_1910">
<rect width="15" height="15" fill="white" transform="translate(0.5 0.247803)"/>
</clipPath>
</defs>
</svg>
